<svg width="24" height="24" viewBox="0 0 24 24" fill="none" xmlns="http://www.w3.org/2000/svg">
<path d="M4.5 13.25C4.5 8.4175 8.4175 4.5 13.25 4.5C17.8715 4.5 21.6465 8.0855 21.9685 12.625C21.9815 12.417 22 12.211 22 12C22 6.477 17.523 2 12 2C6.477 2 2 6.477 2 12C2 17.523 6.477 22 12 22C12.211 22 12.417 21.9815 12.625 21.9685C8.0855 21.6465 4.5 17.8715 4.5 13.25Z" fill="#FF9100"/>
<path d="M18.25 14C16.455 14 15 12.545 15 10.75C15 9.4315 15.7865 8.299 16.9145 7.7895C15.9705 7.287 14.894 7 13.75 7C10.022 7 7 10.022 7 13.75C7 17.478 10.022 20.5 13.75 20.5C17.478 20.5 20.5 17.478 20.5 13.75C20.5 13.5375 20.4875 13.328 20.468 13.1205C19.887 13.6645 19.1085 14 18.25 14Z" fill="#FF9100"/>
</svg>
