<svg xmlns="http://www.w3.org/2000/svg" viewBox="0 0 38.90562 22.37947"><defs><style>.a{opacity:0.1;}.b{fill:none;}.c{fill:#fff;}</style></defs><title>tubi_brand-wordmark-small</title><g class="a"><rect class="b" width="38.90562" height="22.37947"/></g><path class="c" d="M30.55362,4.72916a.91552.91552,0,1,0,.91552.91552A.91552.91552,0,0,0,30.55362,4.72916Zm.69644,2.74663H29.63819v7.19462a.228.228,0,0,0,.22727.23119h1.3846a.22124.22124,0,0,0,.219-.23119V7.707A.22124.22124,0,0,0,31.25007,7.47578ZM12.90063,14.19984l.0002.0002L12.206,12.99351l-.00042.00023a.23056.23056,0,0,0-.29241-.09618,1.83692,1.83692,0,0,1-.73984.15451,1.87713,1.87713,0,0,1-1.88014-1.84954v-1.563a.231.231,0,0,1,.23077-.2312h2.38675c.12744,0,.23077-.15887.23077-.28656V7.70764a.231.231,0,0,0-.23077-.23123H9.52354a.231.231,0,0,1-.23077-.23119V4.96032A.231.231,0,0,0,9.062,4.72916H7.46218v6.51036a3.70818,3.70818,0,0,0,5.34057,3.28331.23139.23139,0,0,0,.10505-.30956Zm12.11872.70176a3.71352,3.71352,0,1,0-1.5202-7.07087l0-.00007a.23043.23043,0,0,1-.09512.02056A.275.275,0,0,1,23.127,7.62V4.96035a.231.231,0,0,0-.23077-.23119H21.2967v6.47337A3.72168,3.72168,0,0,0,25.01935,14.9016Zm-.00971-5.59484a1.8819,1.8819,0,1,1-1.8819,1.8819A1.8819,1.8819,0,0,1,25.00964,9.30676ZM20.1504,7.47536l-1.60026.00042v3.72675a1.83113,1.83113,0,1,1-3.66208,0l-.00429-3.49585a.22743.22743,0,0,0-.22679-.231l-1.70168.00042v3.76338a3.71954,3.71954,0,0,0,3.75643,3.66208,3.67664,3.67664,0,0,0,3.66944-3.69949V7.70655A.231.231,0,0,0,20.1504,7.47536Z"/></svg>